<?xml version="1.0" encoding="us-ascii" standalone="no"?><svg xmlns="http://www.w3.org/2000/svg" xmlns:xlink="http://www.w3.org/1999/xlink" contentStyleType="text/css" height="1900px" preserveAspectRatio="none" style="width:595px;height:1900px;background:#FFFFFF;" version="1.1" viewBox="0 0 595 1900" width="595px" zoomAndPan="magnify"><defs/><g><!--cluster CLCheckers2--><g id="cluster_CLCheckers2"><path d="M145.5,6 L239.5,6 A3.75,3.75 0 0 1 242,8.5 L249,29.6094 L585.5,29.6094 A2.5,2.5 0 0 1 588,32.1094 L588,1890.5 A2.5,2.5 0 0 1 585.5,1893 L145.5,1893 A2.5,2.5 0 0 1 143,1890.5 L143,8.5 A2.5,2.5 0 0 1 145.5,6 " fill="none" style="stroke:#000000;stroke-width:1.5;"/><line style="stroke:#000000;stroke-width:1.5;" x1="143" x2="249" y1="29.6094" y2="29.6094"/><text fill="#000000" font-family="sans-serif" font-size="14" font-weight="bold" lengthAdjust="spacing" textLength="93" x="147" y="22.5332">CLCheckers2</text></g><g id="elem_uc1"><ellipse cx="365.3232" cy="1259.1646" fill="#F1F1F1" rx="206.3232" ry="43.6646" style="stroke:#181818;stroke-width:0.5;"/><text fill="#000000" font-family="sans-serif" font-size="14" lengthAdjust="spacing" textLength="385" x="172.8232" y="1262.8932">&#1055;&#1088;&#1086;&#1089;&#1084;&#1086;&#1090;&#1088; &#1075;&#1088;&#1072;&#1092;&#1080;&#1095;&#1077;&#1089;&#1082;&#1086;&#1075;&#1086; &#1087;&#1088;&#1077;&#1076;&#1089;&#1090;&#1072;&#1074;&#1083;&#1077;&#1085;&#1080;&#1103; &#1080;&#1075;&#1088;&#1086;&#1074;&#1086;&#1081; &#1089;&#1080;&#1090;&#1091;&#1072;&#1094;&#1080;&#1080;</text></g><g id="elem_uc2"><ellipse cx="365.6965" cy="308.2393" fill="#F1F1F1" rx="91.6965" ry="20.7393" style="stroke:#181818;stroke-width:0.5;"/><text fill="#000000" font-family="sans-serif" font-size="14" lengthAdjust="spacing" textLength="142" x="294.6965" y="311.9678">&#1057;&#1086;&#1079;&#1076;&#1072;&#1085;&#1080;&#1077; &#1085;&#1086;&#1074;&#1086;&#1081; &#1080;&#1075;&#1088;&#1099;</text></g><g id="elem_uc21"><ellipse cx="365.2877" cy="382.0575" fill="#F1F1F1" rx="78.2877" ry="18.0575" style="stroke:#181818;stroke-width:0.5;"/><text fill="#000000" font-family="sans-serif" font-size="14" lengthAdjust="spacing" textLength="110" x="308.5149" y="386.2774">&#1042;&#1074;&#1077;&#1089;&#1090;&#1080; &#1089;&#1074;&#1086;&#1105; &#1080;&#1084;&#1103;</text></g><g id="elem_uc22"><ellipse cx="365.5226" cy="147.8045" fill="#F1F1F1" rx="109.5226" ry="24.3045" style="stroke:#181818;stroke-width:0.5;"/><text fill="#000000" font-family="sans-serif" font-size="14" lengthAdjust="spacing" textLength="182" x="274.5226" y="151.533">&#1048;&#1075;&#1088;&#1072;&#1090;&#1100; &#1087;&#1088;&#1086;&#1090;&#1080;&#1074; &#1082;&#1086;&#1084;&#1087;&#1100;&#1102;&#1090;&#1077;&#1088;&#1072;</text></g><g id="elem_uc221"><ellipse cx="365.7412" cy="64.9482" fill="#F1F1F1" rx="102.7412" ry="22.9482" style="stroke:#181818;stroke-width:0.5;"/><text fill="#000000" font-family="sans-serif" font-size="14" lengthAdjust="spacing" textLength="167" x="282.2412" y="68.6768">&#1042;&#1099;&#1073;&#1086;&#1088; &#1091;&#1088;&#1086;&#1074;&#1085;&#1103; &#1089;&#1083;&#1086;&#1078;&#1085;&#1086;&#1089;&#1090;&#1080;</text></g><g id="elem_uc23"><ellipse cx="365.613" cy="229.8226" fill="#F1F1F1" rx="99.613" ry="22.3226" style="stroke:#181818;stroke-width:0.5;"/><text fill="#000000" font-family="sans-serif" font-size="14" lengthAdjust="spacing" textLength="160" x="285.613" y="233.5511">&#1048;&#1075;&#1088;&#1072;&#1090;&#1100; &#1087;&#1088;&#1086;&#1090;&#1080;&#1074; &#1095;&#1077;&#1083;&#1086;&#1074;&#1077;&#1082;&#1072;</text></g><g id="elem_uc231"><ellipse cx="365.337" cy="456.9674" fill="#F1F1F1" rx="97.837" ry="21.9674" style="stroke:#181818;stroke-width:0.5;"/><text fill="#000000" font-family="sans-serif" font-size="14" lengthAdjust="spacing" textLength="156" x="287.337" y="460.6959">&#1042;&#1074;&#1077;&#1089;&#1090;&#1080; &#1080;&#1084;&#1103; &#1087;&#1088;&#1086;&#1090;&#1080;&#1074;&#1085;&#1080;&#1082;&#1072;</text></g><g id="elem_uc3"><ellipse cx="365.4277" cy="686.0855" fill="#F1F1F1" rx="68.4277" ry="16.0855" style="stroke:#181818;stroke-width:0.5;"/><text fill="#000000" font-family="sans-serif" font-size="14" lengthAdjust="spacing" textLength="83" x="320.9277" y="690.6021">&#1057;&#1076;&#1077;&#1083;&#1072;&#1090;&#1100; &#1093;&#1086;&#1076;</text></g><g id="elem_uc31"><ellipse cx="365.7471" cy="534.0494" fill="#F1F1F1" rx="88.2471" ry="20.0494" style="stroke:#181818;stroke-width:0.5;"/><text fill="#000000" font-family="sans-serif" font-size="14" lengthAdjust="spacing" textLength="134" x="298.7471" y="537.7779">&#1059;&#1087;&#1088;&#1072;&#1074;&#1083;&#1077;&#1085;&#1080;&#1077; &#1084;&#1099;&#1096;&#1100;&#1102;</text></g><g id="elem_uc32"><ellipse cx="365.7412" cy="611.9482" fill="#F1F1F1" rx="102.7412" ry="22.9482" style="stroke:#181818;stroke-width:0.5;"/><text fill="#000000" font-family="sans-serif" font-size="14" lengthAdjust="spacing" textLength="167" x="282.2412" y="615.6768">&#1059;&#1087;&#1088;&#1072;&#1074;&#1083;&#1077;&#1085;&#1080;&#1077; &#1082;&#1083;&#1072;&#1074;&#1080;&#1072;&#1090;&#1091;&#1088;&#1086;&#1081;</text></g><g id="elem_uc4"><ellipse cx="365.613" cy="1359.8226" fill="#F1F1F1" rx="99.613" ry="22.3226" style="stroke:#181818;stroke-width:0.5;"/><text fill="#000000" font-family="sans-serif" font-size="14" lengthAdjust="spacing" textLength="160" x="285.613" y="1363.5511">&#1055;&#1088;&#1086;&#1089;&#1084;&#1086;&#1090;&#1088; &#1078;&#1091;&#1088;&#1085;&#1072;&#1083;&#1072; &#1080;&#1075;&#1088;&#1099;</text></g><g id="elem_uc5"><ellipse cx="365.2827" cy="927.9565" fill="#F1F1F1" rx="80.2827" ry="18.4565" style="stroke:#181818;stroke-width:0.5;"/><text fill="#000000" font-family="sans-serif" font-size="14" lengthAdjust="spacing" textLength="115" x="306.9192" y="931.9341">&#1057;&#1086;&#1093;&#1088;&#1072;&#1085;&#1077;&#1085;&#1080;&#1077; &#1080;&#1075;&#1088;&#1099;</text></g><g id="elem_uc51"><ellipse cx="365.7025" cy="763.1405" fill="#F1F1F1" rx="118.7025" ry="26.1405" style="stroke:#181818;stroke-width:0.5;"/><text fill="#000000" font-family="sans-serif" font-size="14" lengthAdjust="spacing" textLength="202" x="264.7025" y="766.869">&#1057;&#1086;&#1093;&#1088;&#1072;&#1085;&#1077;&#1085;&#1080;&#1077; &#1080;&#1075;&#1088;&#1086;&#1074;&#1086;&#1081; &#1089;&#1080;&#1090;&#1091;&#1072;&#1094;&#1080;&#1080;</text></g><g id="elem_uc52"><ellipse cx="365.6359" cy="849.1272" fill="#F1F1F1" rx="113.6359" ry="25.1272" style="stroke:#181818;stroke-width:0.5;"/><text fill="#000000" font-family="sans-serif" font-size="14" lengthAdjust="spacing" textLength="191" x="270.1359" y="852.8557">&#1057;&#1086;&#1093;&#1088;&#1072;&#1085;&#1077;&#1085;&#1080;&#1077; &#1078;&#1091;&#1088;&#1085;&#1072;&#1083;&#1072; &#1087;&#1072;&#1088;&#1090;&#1080;&#1080;</text></g><g id="elem_uc6"><ellipse cx="365.7113" cy="1082.1423" fill="#F1F1F1" rx="71.2113" ry="16.6423" style="stroke:#181818;stroke-width:0.5;"/><text fill="#000000" font-family="sans-serif" font-size="14" lengthAdjust="spacing" textLength="91" x="317.2113" y="1086.6589">&#1047;&#1072;&#1075;&#1088;&#1091;&#1079;&#1082;&#1072; &#1080;&#1075;&#1088;&#1099;</text></g><g id="elem_uc61"><ellipse cx="365.7046" cy="1005.9409" fill="#F1F1F1" rx="107.7046" ry="23.9409" style="stroke:#181818;stroke-width:0.5;"/><text fill="#000000" font-family="sans-serif" font-size="14" lengthAdjust="spacing" textLength="178" x="276.7046" y="1009.6694">&#1047;&#1072;&#1075;&#1088;&#1091;&#1079;&#1082;&#1072; &#1080;&#1075;&#1088;&#1086;&#1074;&#1086;&#1081; &#1089;&#1080;&#1090;&#1091;&#1072;&#1094;&#1080;&#1080;</text></g><g id="elem_uc62"><ellipse cx="365.7412" cy="1156.9482" fill="#F1F1F1" rx="102.7412" ry="22.9482" style="stroke:#181818;stroke-width:0.5;"/><text fill="#000000" font-family="sans-serif" font-size="14" lengthAdjust="spacing" textLength="167" x="282.2412" y="1160.6768">&#1047;&#1072;&#1075;&#1088;&#1091;&#1079;&#1082;&#1072; &#1078;&#1091;&#1088;&#1085;&#1072;&#1083;&#1072; &#1087;&#1072;&#1088;&#1090;&#1080;&#1080;</text></g><g id="elem_uc7"><ellipse cx="365.3995" cy="1449.7799" fill="#F1F1F1" rx="146.8995" ry="31.7799" style="stroke:#181818;stroke-width:0.5;"/><text fill="#000000" font-family="sans-serif" font-size="14" lengthAdjust="spacing" textLength="262" x="234.3995" y="1453.5084">&#1055;&#1086;&#1089;&#1084;&#1086;&#1090;&#1088;&#1077;&#1090;&#1100; &#1080;&#1085;&#1092;&#1086;&#1088;&#1084;&#1072;&#1094;&#1080;&#1102; &#1086; &#1087;&#1088;&#1086;&#1075;&#1088;&#1072;&#1084;&#1084;&#1077;</text></g><g id="elem_uc8"><ellipse cx="365.4693" cy="1547.1939" fill="#F1F1F1" rx="136.4693" ry="29.6939" style="stroke:#181818;stroke-width:0.5;"/><text fill="#000000" font-family="sans-serif" font-size="14" lengthAdjust="spacing" textLength="240" x="245.4693" y="1550.9224">&#1055;&#1086;&#1089;&#1084;&#1086;&#1090;&#1088;&#1077;&#1090;&#1100; &#1089;&#1087;&#1088;&#1072;&#1074;&#1082;&#1091; &#1087;&#1086; &#1091;&#1087;&#1088;&#1072;&#1074;&#1083;&#1077;&#1085;&#1080;&#1102;</text></g><g id="elem_uc9"><ellipse cx="365.3935" cy="1635.0787" fill="#F1F1F1" rx="105.8935" ry="23.5787" style="stroke:#181818;stroke-width:0.5;"/><text fill="#000000" font-family="sans-serif" font-size="14" lengthAdjust="spacing" textLength="174" x="278.3935" y="1638.8072">&#1055;&#1086;&#1089;&#1084;&#1086;&#1090;&#1088;&#1077;&#1090;&#1100; &#1087;&#1088;&#1072;&#1074;&#1080;&#1083;&#1072; &#1080;&#1075;&#1088;&#1099;</text></g><g id="elem_uc10"><ellipse cx="365.3032" cy="1709.0087" fill="#F1F1F1" rx="51.3032" ry="15.5087" style="stroke:#181818;stroke-width:0.5;"/><text fill="#000000" font-family="sans-serif" font-size="14" lengthAdjust="spacing" textLength="56" x="334.3032" y="1713.5253">&#1057;&#1076;&#1072;&#1090;&#1100;&#1089;&#1103;</text></g><g id="elem_uc11"><ellipse cx="365.2698" cy="1778.954" fill="#F1F1F1" rx="85.2698" ry="19.454" style="stroke:#181818;stroke-width:0.5;"/><text fill="#000000" font-family="sans-serif" font-size="14" lengthAdjust="spacing" textLength="127" x="301.7698" y="1782.6825">&#1055;&#1088;&#1077;&#1076;&#1083;&#1086;&#1078;&#1080;&#1090;&#1100; &#1085;&#1080;&#1095;&#1100;&#1102;</text></g><g id="elem_uc12"><ellipse cx="365.63" cy="1855.026" fill="#F1F1F1" rx="95.63" ry="21.526" style="stroke:#181818;stroke-width:0.5;"/><text fill="#000000" font-family="sans-serif" font-size="14" lengthAdjust="spacing" textLength="151" x="290.13" y="1858.7545">&#1048;&#1079;&#1084;&#1077;&#1085;&#1080;&#1090;&#1100; &#1088;&#1072;&#1079;&#1084;&#1077;&#1088; &#1086;&#1082;&#1085;&#1072;</text></g><!--entity ????????????--><g id="elem_&#1055;&#1086;&#1083;&#1100;&#1079;&#1086;&#1074;&#1072;&#1090;&#1077;&#1083;&#1100;"><ellipse cx="52.5" cy="1374.5" fill="#F1F1F1" rx="8" ry="8" style="stroke:#181818;stroke-width:0.5;"/><path d="M52.5,1382.5 L52.5,1409.5 M39.5,1390.5 L65.5,1390.5 M52.5,1409.5 L39.5,1424.5 M52.5,1409.5 L65.5,1424.5 " fill="none" style="stroke:#181818;stroke-width:0.5;"/><text fill="#000000" font-family="sans-serif" font-size="14" lengthAdjust="spacing" textLength="93" x="6" y="1440.5332">&#1055;&#1086;&#1083;&#1100;&#1079;&#1086;&#1074;&#1072;&#1090;&#1077;&#1083;&#1100;</text></g><!--link ???????????? to uc1--><g id="link_&#1055;&#1086;&#1083;&#1100;&#1079;&#1086;&#1074;&#1072;&#1090;&#1077;&#1083;&#1100;_uc1"><path d="M99.09,1371.5 C138.64,1371.5 189,1371.5 189,1371.5 C189,1371.5 189,1320.64 189,1287.77 " fill="none" id="&#1055;&#1086;&#1083;&#1100;&#1079;&#1086;&#1074;&#1072;&#1090;&#1077;&#1083;&#1100;-to-uc1" style="stroke:#181818;stroke-width:1.0;"/><polygon fill="#181818" points="189,1281.77,185,1290.77,189,1286.77,193,1290.77,189,1281.77" style="stroke:#181818;stroke-width:1.0;"/></g><!--link ???????????? to uc2--><g id="link_&#1055;&#1086;&#1083;&#1100;&#1079;&#1086;&#1074;&#1072;&#1090;&#1077;&#1083;&#1100;_uc2"><path d="M25,1365.96 C25,1170.54 25,308 25,308 C25,308 166.95,308 267.8,308 " fill="none" id="&#1055;&#1086;&#1083;&#1100;&#1079;&#1086;&#1074;&#1072;&#1090;&#1077;&#1083;&#1100;-to-uc2" style="stroke:#181818;stroke-width:1.0;"/><polygon fill="#181818" points="273.8,308,264.8,304,268.8,308,264.8,312,273.8,308" style="stroke:#181818;stroke-width:1.0;"/></g><!--link ???????????? to uc3--><g id="link_&#1055;&#1086;&#1083;&#1100;&#1079;&#1086;&#1074;&#1072;&#1090;&#1077;&#1083;&#1100;_uc3"><path d="M44,1365.87 C44,1216.6 44,691.33 44,691.33 C44,691.33 200.94,691.33 294.83,691.33 " fill="none" id="&#1055;&#1086;&#1083;&#1100;&#1079;&#1086;&#1074;&#1072;&#1090;&#1077;&#1083;&#1100;-to-uc3" style="stroke:#181818;stroke-width:1.0;"/><polygon fill="#181818" points="300.83,691.33,291.83,687.33,295.83,691.33,291.83,695.33,300.83,691.33" style="stroke:#181818;stroke-width:1.0;"/></g><!--link ???????????? to uc4--><g id="link_&#1055;&#1086;&#1083;&#1100;&#1079;&#1086;&#1074;&#1072;&#1090;&#1077;&#1083;&#1100;_uc4"><path d="M99.02,1377 C152.32,1377 234.05,1377 294.18,1377 " fill="none" id="&#1055;&#1086;&#1083;&#1100;&#1079;&#1086;&#1074;&#1072;&#1090;&#1077;&#1083;&#1100;-to-uc4" style="stroke:#181818;stroke-width:1.0;"/><polygon fill="#181818" points="300.18,1377,291.18,1373,295.18,1377,291.18,1381,300.18,1377" style="stroke:#181818;stroke-width:1.0;"/></g><!--link ???????????? to uc5--><g id="link_&#1055;&#1086;&#1083;&#1100;&#1079;&#1086;&#1074;&#1072;&#1090;&#1077;&#1083;&#1100;_uc5"><path d="M62,1365.97 C62,1252.04 62,928 62,928 C62,928 189.05,928 278.96,928 " fill="none" id="&#1055;&#1086;&#1083;&#1100;&#1079;&#1086;&#1074;&#1072;&#1090;&#1077;&#1083;&#1100;-to-uc5" style="stroke:#181818;stroke-width:1.0;"/><polygon fill="#181818" points="284.96,928,275.96,924,279.96,928,275.96,932,284.96,928" style="stroke:#181818;stroke-width:1.0;"/></g><!--link ???????????? to uc6--><g id="link_&#1055;&#1086;&#1083;&#1100;&#1079;&#1086;&#1074;&#1072;&#1090;&#1077;&#1083;&#1100;_uc6"><path d="M81,1365.72 C81,1279.64 81,1082 81,1082 C81,1082 204.18,1082 288.44,1082 " fill="none" id="&#1055;&#1086;&#1083;&#1100;&#1079;&#1086;&#1074;&#1072;&#1090;&#1077;&#1083;&#1100;-to-uc6" style="stroke:#181818;stroke-width:1.0;"/><polygon fill="#181818" points="294.44,1082,285.44,1078,289.44,1082,285.44,1086,294.44,1082" style="stroke:#181818;stroke-width:1.0;"/></g><!--link ???????????? to uc7--><g id="link_&#1055;&#1086;&#1083;&#1100;&#1079;&#1086;&#1074;&#1072;&#1090;&#1077;&#1083;&#1100;_uc7"><path d="M99.02,1431 C138.02,1431 189.44,1431 241,1431 " fill="none" id="&#1055;&#1086;&#1083;&#1100;&#1079;&#1086;&#1074;&#1072;&#1090;&#1077;&#1083;&#1100;-to-uc7" style="stroke:#181818;stroke-width:1.0;"/><polygon fill="#181818" points="247,1431,238,1427,242,1431,238,1435,247,1431" style="stroke:#181818;stroke-width:1.0;"/></g><!--link ???????????? to uc8--><g id="link_&#1055;&#1086;&#1083;&#1100;&#1079;&#1086;&#1074;&#1072;&#1090;&#1077;&#1083;&#1100;_uc8"><path d="M84,1444.18 C84,1486.21 84,1547 84,1547 C84,1547 151.15,1547 222.87,1547 " fill="none" id="&#1055;&#1086;&#1083;&#1100;&#1079;&#1086;&#1074;&#1072;&#1090;&#1077;&#1083;&#1100;-to-uc8" style="stroke:#181818;stroke-width:1.0;"/><polygon fill="#181818" points="228.87,1547,219.87,1543,223.87,1547,219.87,1551,228.87,1547" style="stroke:#181818;stroke-width:1.0;"/></g><!--link ???????????? to uc9--><g id="link_&#1055;&#1086;&#1083;&#1100;&#1079;&#1086;&#1074;&#1072;&#1090;&#1077;&#1083;&#1100;_uc9"><path d="M68,1444.02 C68,1509.64 68,1635 68,1635 C68,1635 167.92,1635 253.36,1635 " fill="none" id="&#1055;&#1086;&#1083;&#1100;&#1079;&#1086;&#1074;&#1072;&#1090;&#1077;&#1083;&#1100;-to-uc9" style="stroke:#181818;stroke-width:1.0;"/><polygon fill="#181818" points="259.36,1635,250.36,1631,254.36,1635,250.36,1639,259.36,1635" style="stroke:#181818;stroke-width:1.0;"/></g><!--link ???????????? to uc10--><g id="link_&#1055;&#1086;&#1083;&#1100;&#1079;&#1086;&#1074;&#1072;&#1090;&#1077;&#1083;&#1100;_uc10"><path d="M53,1444.12 C53,1526.23 53,1709 53,1709 C53,1709 219.14,1709 307.9,1709 " fill="none" id="&#1055;&#1086;&#1083;&#1100;&#1079;&#1086;&#1074;&#1072;&#1090;&#1077;&#1083;&#1100;-to-uc10" style="stroke:#181818;stroke-width:1.0;"/><polygon fill="#181818" points="313.9,1709,304.9,1705,308.9,1709,304.9,1713,313.9,1709" style="stroke:#181818;stroke-width:1.0;"/></g><!--link ???????????? to uc11--><g id="link_&#1055;&#1086;&#1083;&#1100;&#1079;&#1086;&#1074;&#1072;&#1090;&#1077;&#1083;&#1100;_uc11"><path d="M37,1444.32 C37,1540.34 37,1779 37,1779 C37,1779 176.29,1779 273.62,1779 " fill="none" id="&#1055;&#1086;&#1083;&#1100;&#1079;&#1086;&#1074;&#1072;&#1090;&#1077;&#1083;&#1100;-to-uc11" style="stroke:#181818;stroke-width:1.0;"/><polygon fill="#181818" points="279.62,1779,270.62,1775,274.62,1779,270.62,1783,279.62,1779" style="stroke:#181818;stroke-width:1.0;"/></g><!--link ???????????? to uc12--><g id="link_&#1055;&#1086;&#1083;&#1100;&#1079;&#1086;&#1074;&#1072;&#1090;&#1077;&#1083;&#1100;_uc12"><path d="M22,1444.15 C22,1553.63 22,1855 22,1855 C22,1855 162.18,1855 263.82,1855 " fill="none" id="&#1055;&#1086;&#1083;&#1100;&#1079;&#1086;&#1074;&#1072;&#1090;&#1077;&#1083;&#1100;-to-uc12" style="stroke:#181818;stroke-width:1.0;"/><polygon fill="#181818" points="269.82,1855,260.82,1851,264.82,1855,260.82,1859,269.82,1855" style="stroke:#181818;stroke-width:1.0;"/></g><!--link uc21 to uc2--><g id="link_uc21_uc2"><path d="M366,363.71 C366,353.09 366,345.69 366,334.69 " fill="none" id="uc21-to-uc2" style="stroke:#181818;stroke-width:1.0;stroke-dasharray:7.0,7.0;"/><polygon fill="#181818" points="366,328.69,362,337.69,366,333.69,370,337.69,366,328.69" style="stroke:#181818;stroke-width:1.0;"/><text fill="#000000" font-family="sans-serif" font-size="13" lengthAdjust="spacing" textLength="39" x="326" y="342.6951">extend</text></g><!--link uc2 to uc22--><g id="link_uc2_uc22"><path d="M457.19,308 C466.15,308 472,308 472,308 C472,308 472,189.3 472,160.08 " fill="none" id="uc2-to-uc22" style="stroke:#181818;stroke-width:1.0;stroke-dasharray:7.0,7.0;"/><polygon fill="#181818" points="472,154.08,468,163.08,472,159.08,476,163.08,472,154.08" style="stroke:#181818;stroke-width:1.0;"/><text fill="#000000" font-family="sans-serif" font-size="13" lengthAdjust="spacing" textLength="41" x="473" y="252.9351">include</text></g><!--link uc22 to uc221--><g id="link_uc22_uc221"><path d="M366,123.1 C366,112.02 366,105.05 366,94.18 " fill="none" id="uc22-to-uc221" style="stroke:#181818;stroke-width:1.0;stroke-dasharray:7.0,7.0;"/><polygon fill="#181818" points="366,88.18,362,97.18,366,93.18,370,97.18,366,88.18" style="stroke:#181818;stroke-width:1.0;"/><text fill="#000000" font-family="sans-serif" font-size="13" lengthAdjust="spacing" textLength="41" x="324" y="120.1351">include</text></g><!--link uc2 to uc23--><g id="link_uc2_uc23"><path d="M366,287.1 C366,276.45 366,269.48 366,258.6 " fill="none" id="uc2-to-uc23" style="stroke:#181818;stroke-width:1.0;stroke-dasharray:7.0,7.0;"/><polygon fill="#181818" points="366,252.6,362,261.6,366,257.6,370,261.6,366,252.6" style="stroke:#181818;stroke-width:1.0;"/><text fill="#000000" font-family="sans-serif" font-size="13" lengthAdjust="spacing" textLength="41" x="324" y="284.3451">include</text></g><!--link uc231 to uc23--><g id="link_uc231_uc23"><path d="M267.36,457 C262.15,457 259,457 259,457 C259,457 259,230 259,230 C259,230 255.6,230 259.99,230 " fill="none" id="uc231-to-uc23" style="stroke:#181818;stroke-width:1.0;stroke-dasharray:7.0,7.0;"/><polygon fill="#181818" points="265.99,230,256.99,226,260.99,230,256.99,234,265.99,230" style="stroke:#181818;stroke-width:1.0;"/><text fill="#000000" font-family="sans-serif" font-size="13" lengthAdjust="spacing" textLength="39" x="219" y="358.6751">extend</text></g><!--link uc3 to uc31--><g id="link_uc3_uc31"><path d="M300.81,680.67 C279.43,680.67 261,680.67 261,680.67 C261,680.67 261,534 261,534 C261,534 261.53,534 271.33,534 " fill="none" id="uc3-to-uc31" style="stroke:#181818;stroke-width:1.0;stroke-dasharray:7.0,7.0;"/><polygon fill="#181818" points="277.33,534,268.33,530,272.33,534,268.33,538,277.33,534" style="stroke:#181818;stroke-width:1.0;"/><text fill="#000000" font-family="sans-serif" font-size="13" lengthAdjust="spacing" textLength="41" x="219" y="633.5651">include</text></g><!--link uc3 to uc32--><g id="link_uc3_uc32"><path d="M366,669.94 C366,659.74 366,652.37 366,641.05 " fill="none" id="uc3-to-uc32" style="stroke:#181818;stroke-width:1.0;stroke-dasharray:7.0,7.0;"/><polygon fill="#181818" points="366,635.05,362,644.05,366,640.05,370,644.05,366,635.05" style="stroke:#181818;stroke-width:1.0;"/><text fill="#000000" font-family="sans-serif" font-size="13" lengthAdjust="spacing" textLength="41" x="324" y="648.9851">include</text></g><!--link uc5 to uc51--><g id="link_uc5_uc51"><path d="M446.27,928 C487.06,928 528,928 528,928 C528,928 528,763 528,763 C528,763 515.02,763 490.03,763 " fill="none" id="uc5-to-uc51" style="stroke:#181818;stroke-width:1.0;stroke-dasharray:7.0,7.0;"/><polygon fill="#181818" points="484.03,763,493.03,767,489.03,763,493.03,759,484.03,763" style="stroke:#181818;stroke-width:1.0;"/><text fill="#000000" font-family="sans-serif" font-size="13" lengthAdjust="spacing" textLength="41" x="486" y="878.8751">include</text></g><!--link uc5 to uc52--><g id="link_uc5_uc52"><path d="M366,909.28 C366,898.78 366,891.55 366,880.16 " fill="none" id="uc5-to-uc52" style="stroke:#181818;stroke-width:1.0;stroke-dasharray:7.0,7.0;"/><polygon fill="#181818" points="366,874.16,362,883.16,366,879.16,370,883.16,366,874.16" style="stroke:#181818;stroke-width:1.0;"/><text fill="#000000" font-family="sans-serif" font-size="13" lengthAdjust="spacing" textLength="41" x="324" y="906.2151">include</text></g><!--link uc6 to uc61--><g id="link_uc6_uc61"><path d="M366,1065.13 C366,1054.81 366,1047.44 366,1036.03 " fill="none" id="uc6-to-uc61" style="stroke:#181818;stroke-width:1.0;stroke-dasharray:7.0,7.0;"/><polygon fill="#181818" points="366,1030.03,362,1039.03,366,1035.03,370,1039.03,366,1030.03" style="stroke:#181818;stroke-width:1.0;"/><text fill="#000000" font-family="sans-serif" font-size="13" lengthAdjust="spacing" textLength="41" x="324" y="1062.0751">include</text></g><!--link uc62 to uc6--><g id="link_uc62_uc6"><path d="M366,1133.68 C366,1122.33 366,1114.94 366,1104.64 " fill="none" id="uc62-to-uc6" style="stroke:#181818;stroke-width:1.0;stroke-dasharray:7.0,7.0;"/><polygon fill="#181818" points="366,1098.64,362,1107.64,366,1103.64,370,1107.64,366,1098.64" style="stroke:#181818;stroke-width:1.0;"/><text fill="#000000" font-family="sans-serif" font-size="13" lengthAdjust="spacing" textLength="39" x="326" y="1112.6551">extend</text></g><!--SRC=[ZLNBRjf05DtxA-woNQIASN2IBhh9jZzXcMcme830IAsgIWIIfX8eKRjfTr7L7qWJ71mUpY_C_57FZ6tY1-sO1SZ7vvvxxfrxXq7Bw_ISllEUsbw7-HzxZBfzlzarskoTJtwN-jvfqwU6rsUkxtKxXk6uVhTF_8P7V2LcV87VEtuhnZoGpuRHSzoMSyhevEr9axajrX_Kw9D1-0m7p7K6Z5xm6p7YaJZZQtoFnOZuFO1RSSv3SSa3l5X2zPv7n9_m8k1pSOO4jqYqmjC6j6lYeOgIsIF-I0WAeJM1p1Uy2b-ICw2XQnOo_m9vmUVGWWeF23-fGYmefabahH3v7RH0-GXbCiI8Rp9cBQxJY6AodqbTOp6BAubaDByZLTyQq4nSoSv9LYfIoYkc_0yYHoGcIRqRb0yBApmyo09YLrk1oZPaivKAAeEbhGNhFwN75UTqL2kpuUMcprMYs8AuGCPvGYwc-gs4CoSjpsWjfkAhx5KQP5Q9MigCW4ALD-xTOwfGqqtaWuhOG04gnTauA4-Lk50EDi_vyo7roY6waQwRLQGA_fyWCbB7jPKfjk07kDBn10koBDTiLwBhpDkcJaPht2wTNVRaCAXgpaDioRbS6xnG5iGLfHTA52y4tgnvaAWULX05aCxPKaoajmXBMPozxPWULV6P1eUxvknunoAf9S8ofhUEkRzZb75b9jT36AUHlYupAsIMBuc5x8OYgbgbBGN9ROXmDfljXfiruxDX_EilWFRstgYRLqEewGYMZd2W8zHr15j7EDGHZdI4OssZzhKCRIzn8eRy0w9NghFqcjW7dtKQ4amm2NeTjpriC4Cz9h2PnnFOogEMcS4JQU1MZ5fvZHJDPWHSZ-5wdfoY1R8TmtQUR2Vsx6SNVm40]--></g></svg>